# xmcd CD database file
#
# Track frame offsets:
#	150
#	13493
#	23514
#	45332
#	69976
#	87126
#	101683
#	114724
#	127747
#	141036
#	154218
#	169251
#	182427
#	195695
#	208166
#	221723
#	233598
#	246528
#	259722
#	273162
#
# Disc length: 3815 seconds
#
# Revision: 1
# Processed by: cddbd v1.5.2PL0 Copyright (c) Steve Scherf et al.
# Submitted via: CDex 1.51
#
DISCID=160ee514
DTITLE=Various Artist - Blues Around Midnight
DYEAR=2007
DGENRE=Blues
TTITLE0=Muddy Waters - Mannish Boy
TTITLE1=John Lee Hooker - Dimples
TTITLE2=Willie Dixon - I'm Your Hoochie Coochie Man
TTITLE3=Big Joe Williams - Chain Gang Blues
TTITLE4=T-Bone Walker - T-Bone Blues
TTITLE5=B.B. King - Sweet Little Angel
TTITLE6=Menphis Slime - Five O'Clock Blues
TTITLE7=Jimmy Rogers - This Has Never Been
TTITLE8=Lightnin' Hopkins - Mussy Haired Woman
TTITLE9=Big Bill Broonsy - Louise
TTITLE10=Joe Hill Louis - Street Walkin' Woman
TTITLE11=Jimmy Reed - You've Got Me Dizzy
TTITLE12=Muddy Waters - Don't Go No Further
TTITLE13=T-Bone Walker - Papa Ain't Salty
TTITLE14=John Lee Hooker - Every Night
TTITLE15=Memphis Slim - Shuffleboard
TTITLE16=Lightnin' Hopkins - Late In The Evening
TTITLE17=B.B. King - When My Heart Bits Like A Hammer
TTITLE18=Lowell Fulson - Trouble Blues
TTITLE19=Big Bill Broonzy - Hey, Hey, Baby
EXTD=YEAR: 2007
EXTT0=
EXTT1=
EXTT2=
EXTT3=
EXTT4=
EXTT5=
EXTT6=
EXTT7=
EXTT8=
EXTT9=
EXTT10=
EXTT11=
EXTT12=
EXTT13=
EXTT14=
EXTT15=
EXTT16=
EXTT17=
EXTT18=
EXTT19=
PLAYORDER=
